<?xml version="1.0" encoding="UTF-8"?>
<svg id="_圖層_1" data-name="圖層 1" xmlns="http://www.w3.org/2000/svg" xmlns:xlink="http://www.w3.org/1999/xlink" viewBox="0 0 200 57">
  <defs>
    <style>
      .cls-1 {
        fill: #00a550;
      }

      .cls-2 {
        fill: url(#linear-gradient-2);
      }

      .cls-3 {
        fill: url(#radial-gradient-5);
      }

      .cls-4 {
        fill: url(#radial-gradient);
      }

      .cls-5 {
        fill: url(#radial-gradient-3);
      }

      .cls-6 {
        fill: url(#radial-gradient-2);
      }

      .cls-7 {
        fill: url(#radial-gradient-4);
      }

      .cls-8 {
        fill: url(#radial-gradient-6);
      }

      .cls-9 {
        fill: url(#linear-gradient);
      }

      .cls-10 {
        fill: #0060ae;
      }
    </style>
    <linearGradient id="linear-gradient" x1="10.84" y1="22.45" x2="34.51" y2="22.45" gradientUnits="userSpaceOnUse">
      <stop offset="0" stop-color="#0060ae"/>
      <stop offset=".12" stop-color="#007cc5"/>
      <stop offset=".27" stop-color="#0097db"/>
      <stop offset=".4" stop-color="#00a7e9"/>
      <stop offset=".5" stop-color="#00adee"/>
      <stop offset=".6" stop-color="#00a4e6"/>
      <stop offset=".77" stop-color="#008bd2"/>
      <stop offset=".98" stop-color="#0064b1"/>
      <stop offset="1" stop-color="#0060ae"/>
    </linearGradient>
    <linearGradient id="linear-gradient-2" x1="22.92" y1="34.55" x2="46.58" y2="34.55" xlink:href="#linear-gradient"/>
    <radialGradient id="radial-gradient" cx="18.22" cy="33.2" fx="18.22" fy="33.2" r="3.08" gradientUnits="userSpaceOnUse">
      <stop offset="0" stop-color="#80c89b"/>
      <stop offset=".14" stop-color="#76c595"/>
      <stop offset=".38" stop-color="#5cbe86"/>
      <stop offset=".69" stop-color="#32b26d"/>
      <stop offset="1" stop-color="#00a550"/>
    </radialGradient>
    <radialGradient id="radial-gradient-2" cx="39.8" cy="23.8" fx="39.8" fy="23.8" r="3.08" xlink:href="#radial-gradient"/>
    <radialGradient id="radial-gradient-3" cx="-237.06" cy="-82.7" fx="-237.06" fy="-82.7" r="22.94" gradientTransform="translate(-200.62 -62.71) rotate(-180)" gradientUnits="userSpaceOnUse">
      <stop offset="0" stop-color="#0094d9"/>
      <stop offset=".28" stop-color="#0084c9"/>
      <stop offset=".84" stop-color="#005c9f"/>
      <stop offset="1" stop-color="#004f92"/>
    </radialGradient>
    <radialGradient id="radial-gradient-4" cx="25.09" cy="-132.28" fx="25.09" fy="-132.28" r="22.95" gradientTransform="translate(-3.52 169.28)" xlink:href="#radial-gradient-3"/>
    <radialGradient id="radial-gradient-5" cx="12.7" cy="7.93" fx="12.7" fy="7.93" r="3.79" gradientUnits="userSpaceOnUse">
      <stop offset="0" stop-color="#0094d9"/>
      <stop offset=".31" stop-color="#0082c6"/>
      <stop offset=".94" stop-color="#005396"/>
      <stop offset="1" stop-color="#004f92"/>
    </radialGradient>
    <radialGradient id="radial-gradient-6" cx="45.05" cy="48.81" fx="45.05" fy="48.81" r="3.79" gradientTransform="matrix(1,0,0,1,0,0)" xlink:href="#radial-gradient-3"/>
  </defs>
  <g>
    <g>
      <path class="cls-1" d="M87.6,42.95c0,.49-.76,1.79-2.3,3.9-1.01,1.32-2.03,2.64-3.03,3.95-.25.33-.37.66-.37,1.01,0,.46.02,1.16.07,2.08.05.92.07,1.62.07,2.07,0,.16-.11.23-.32.23h-3.07c-.17,0-.26-.12-.26-.37,0-.44.03-1.11.09-2,.06-.89.09-1.56.09-2.01,0-.39-.11-.73-.32-1.03-.62-.8-1.54-2.01-2.78-3.61-1.05-1.43-1.81-2.53-2.27-3.28-.16-.26-.23-.51-.23-.75-.02-1.08-.03-2.65-.03-4.7,0-.23.1-.35.31-.35.15,0,.36.01.65.04.28.02.5.04.65.04.17,0,.43-.01.77-.04.34-.03.61-.04.79-.04.16,0,.23.07.23.21,0,.48-.03,1.21-.08,2.17-.05.96-.08,1.69-.08,2.17,0,.51,1.36,2.33,4.09,5.45.65-.73,1.39-1.64,2.22-2.73,1.16-1.5,1.74-2.4,1.74-2.7,0-.46-.04-1.17-.1-2.11-.07-.94-.1-1.64-.1-2.11,0-.23.1-.35.3-.35.16,0,.39.01.71.04.32.02.55.04.71.04.16,0,.41-.01.74-.04.34-.03.58-.04.74-.04.21,0,.31.14.31.43,0,.49,0,1.23.02,2.22.02.99.03,1.73.03,2.22Z"/>
      <path class="cls-1" d="M101.01,49.91c0,1.8-.59,3.34-1.77,4.61-1.21,1.32-2.7,1.98-4.48,1.98s-3.28-.65-4.49-1.96c-1.18-1.26-1.77-2.79-1.77-4.59s.59-3.33,1.77-4.59c1.21-1.29,2.71-1.93,4.49-1.93s3.26.64,4.47,1.93c1.19,1.26,1.78,2.78,1.78,4.57ZM98.29,49.93c0-1.05-.32-1.94-.97-2.68-.67-.78-1.52-1.18-2.56-1.18s-1.89.39-2.57,1.16c-.65.75-.97,1.65-.97,2.7s.33,1.93.98,2.69c.69.8,1.54,1.2,2.56,1.2s1.88-.4,2.56-1.2c.65-.76.97-1.65.97-2.69Z"/>
      <path class="cls-1" d="M110.02,53.82c0,.19-.02.45-.05.78-.04.4-.07.67-.07.79,0,.15-.03.25-.04.28-.04.06-.12.12-.25.18-.7.34-1.82.5-3.33.5-2.01,0-3.02-.91-3.02-2.74,0-.73.02-1.83.05-3.3.03-1.47.05-2.57.05-3.3,0-.35-.18-.54-.53-.57-.32,0-.63,0-.94,0-.18-.04-.27-.4-.27-1.06,0-.25.02-.51.05-.79.03-.21.17-.33.41-.37.22,0,.43,0,.63-.01.39-.02.6-.2.6-.53s-.01-.87-.03-1.58c-.02-.71-.03-1.24-.03-1.59,0-.63.12-.94.36-.94.08,0,.89.13,2.42.4.2.03.3.12.3.28,0,.38-.03.95-.08,1.7-.06.76-.09,1.32-.09,1.7,0,.25.12.37.35.37h3.1c.15,0,.22.05.22.16s-.02.27-.04.5c-.03.23-.05.4-.05.51,0,.13,0,.33.02.59,0,.27.01.47.01.59,0,.16-.12.24-.36.24-.34,0-.87-.02-1.56-.07-.69-.05-1.22-.07-1.56-.07-.07,0-.12.24-.15.73-.04.61-.06,1.47-.06,2.57v1.92c0,.74.07,1.26.2,1.55.21.45.63.67,1.28.67.27,0,.66-.05,1.18-.17.52-.11.9-.17,1.15-.17.1,0,.15.08.15.23Z"/>
      <path class="cls-1" d="M119.06,53.82c0,.19-.02.45-.05.78-.04.4-.07.67-.08.79,0,.15-.02.25-.04.28-.04.06-.12.12-.25.18-.71.34-1.82.5-3.33.5-2.01,0-3.02-.91-3.02-2.74,0-.73.02-1.83.05-3.3.04-1.47.05-2.57.05-3.3,0-.35-.17-.54-.53-.57-.31,0-.63,0-.94,0-.18-.04-.27-.4-.27-1.06,0-.25.02-.51.05-.79.03-.21.17-.33.41-.37.22,0,.43,0,.63-.01.39-.02.59-.2.59-.53s-.01-.87-.03-1.58c-.02-.71-.04-1.24-.04-1.59,0-.63.12-.94.36-.94.08,0,.89.13,2.43.4.2.03.3.12.3.28,0,.38-.03.95-.08,1.7-.06.76-.08,1.32-.08,1.7,0,.25.12.37.35.37h3.1c.14,0,.22.05.22.16s-.01.27-.05.5c-.03.23-.04.4-.04.51,0,.13,0,.33.02.59,0,.27.01.47.01.59,0,.16-.12.24-.36.24-.34,0-.86-.02-1.56-.07-.7-.05-1.22-.07-1.56-.07-.07,0-.12.24-.16.73-.04.61-.06,1.47-.06,2.57v1.92c0,.74.07,1.26.21,1.55.21.45.63.67,1.28.67.27,0,.66-.05,1.17-.17.52-.11.9-.17,1.15-.17.1,0,.15.08.15.23Z"/>
      <path class="cls-1" d="M133.45,44.52s-.01.11-.04.23c-.34,1.97-.5,3.67-.5,5.1,0,.09.11,2.02.32,5.8v.18c.02.25-.09.37-.33.37s-.59.03-1.07.08c-.48.06-.83.08-1.06.08-.16,0-.29-.3-.38-.9-.08-.6-.17-.91-.25-.91-.05,0-.28.17-.69.51-.51.41-.98.73-1.42.94-.68.34-1.36.51-2.04.51-1.67,0-3.08-.67-4.22-2-1.09-1.27-1.62-2.76-1.62-4.45,0-1.91.54-3.49,1.64-4.74,1.15-1.3,2.65-1.95,4.52-1.95,1.32,0,2.46.46,3.45,1.37.15.17.38.42.68.75.03.02.05.04.08.04.05,0,.12-.27.22-.81.09-.54.22-.81.36-.81.23,0,.66.07,1.3.2.7.16,1.06.29,1.06.41ZM130.16,49.91c0-1.06-.31-1.97-.94-2.72-.66-.82-1.51-1.23-2.54-1.23s-1.89.4-2.58,1.21c-.66.78-.99,1.68-.99,2.74s.33,1.95.99,2.71c.69.8,1.55,1.2,2.58,1.2s1.85-.41,2.53-1.22c.64-.77.95-1.66.95-2.68Z"/>
      <path class="cls-1" d="M154.2,40.53c0,.22-.08.34-.23.34-.24,0-1.76-.05-4.57-.16-.08,2.63-.12,4.73-.12,6.31,0,.99.04,2.47.11,4.45.07,1.98.11,3.46.11,4.45,0,.18-.12.27-.38.27-.16,0-.39-.01-.71-.04-.32-.03-.56-.04-.72-.04s-.39.01-.71.04c-.32.03-.55.04-.71.04-.21,0-.32-.11-.32-.32,0-.98.04-2.46.12-4.42.08-1.97.12-3.44.12-4.43,0-1.53-.05-3.64-.14-6.31-2.22.14-3.85.21-4.88.21-.1,0-.16-.04-.16-.13,0-.15.04-.38.11-.67.1-.38.15-.6.17-.67.02-.3.08-.72.18-1.25.04-.11.12-.17.22-.17h.15c3.05.2,5.06.28,6.03.28.86,0,2.27-.06,4.22-.19,1.33-.08,1.89-.13,1.66-.13.22,0,.35.08.37.23-.02-.1-.03.32-.03,1.25,0,.12.01.29.04.52.03.24.04.41.04.53Z"/>
      <path class="cls-1" d="M166.67,49.26c0,.64-.28,1.06-.83,1.28-.37.14-3.03.39-7.99.76.11.76.53,1.4,1.25,1.93.69.5,1.43.76,2.22.76,1.36,0,2.61-.44,3.74-1.32.14-.11.28-.22.41-.34.07,0,.11.01.14.03.02.02.18.32.48.9.3.58.45.89.45.93,0,.05-.07.15-.21.3-1.27,1.35-2.89,2.01-4.87,2.01s-3.59-.59-4.78-1.79c-1.19-1.19-1.78-2.78-1.78-4.77,0-1.77.57-3.31,1.71-4.63,1.19-1.37,2.66-2.05,4.4-2.05,1.62,0,2.97.59,4.06,1.78,1.06,1.15,1.59,2.56,1.59,4.21ZM163.59,48.48c0-.72-.28-1.35-.85-1.9-.56-.55-1.2-.83-1.9-.83-.79,0-1.49.32-2.11.96-.62.64-.93,1.35-.93,2.14,0,.18.16.27.46.27,1.28,0,2.8-.13,4.57-.39.5-.07.75-.16.75-.26Z"/>
      <path class="cls-1" d="M177.48,44.49c0,.19-.1.61-.3,1.26-.2.65-.33.98-.41.98-.39-.17-.78-.34-1.17-.51-.39-.17-.82-.26-1.28-.26-1.06,0-1.94.39-2.64,1.17-.71.78-1.06,1.71-1.06,2.78s.35,1.96,1.06,2.72c.72.79,1.6,1.18,2.64,1.18.58,0,1.15-.14,1.71-.42.56-.28.8-.43.73-.43.11,0,.23.36.37,1.09.13.65.19,1.1.19,1.35,0,.27-.5.53-1.51.79-.84.21-1.47.32-1.87.32-1.78,0-3.27-.66-4.49-1.99-1.19-1.29-1.79-2.83-1.79-4.62s.59-3.37,1.76-4.65c1.2-1.3,2.71-1.96,4.51-1.96,1.21,0,2.3.31,3.31.92.17.1.26.19.26.27Z"/>
      <path class="cls-1" d="M190.36,55.74c0,.32-.09.48-.27.48-.27,0-.67,0-1.21,0-.54-.01-.95-.02-1.21-.02-.22,0-.32-.14-.32-.43,0-.41.01-1.04.04-1.87.03-.84.05-1.47.05-1.89,0-.39-.02-.99-.05-1.8-.03-.8-.04-1.41-.04-1.81,0-1.55-.73-2.32-2.2-2.32-.47,0-1.09.24-1.86.71-.82.51-1.23.97-1.23,1.39v7.67c0,.25-.09.37-.27.37-.27,0-.67,0-1.2,0-.54-.01-.93-.02-1.2-.02-.2,0-.3-.12-.3-.35v-6.24c0-1.02-.05-3.17-.17-6.48-.02-1.02-.09-2.54-.22-4.55-.02-.1-.03-.17-.03-.2,0-.15.05-.24.15-.27.15-.05.63-.08,1.46-.08.18,0,.45-.03.81-.09.36-.06.62-.1.79-.1.11,0,.17.08.17.25,0,.81-.03,2.02-.09,3.65-.07,1.62-.1,2.84-.1,3.65,0,.2.03.3.11.31.44-.37,1.01-.82,1.7-1.34.84-.53,1.73-.79,2.67-.79,1.62,0,2.73.48,3.34,1.44.44.71.66,1.83.66,3.36,0,.27,0,.68-.02,1.23-.01.55-.02.96-.02,1.23,0,.55.01,1.37.03,2.46.02,1.1.02,1.91.02,2.45Z"/>
    </g>
    <g>
      <g>
        <path class="cls-10" d="M93.95,27.43c-2.06-.73-3.73-1.42-5-2.09-1.79-1-3.27-2.04-4.44-3.12-1.33-1.37-2.25-2.7-2.75-3.99-.38-.8-.64-1.69-.8-2.65h0c.01-.44.34-.76.76-.77.02,0,.04-.01.05-.01h11.15c.75-.01,1.12-.43,1.12-1.26,0-.73-.38-1.09-1.12-1.09h-10.81c-2.02.05-3.62,1.52-3.86,3.48h0c-.22,1.31-.63,2.46-1.24,3.49-1.02,1.83-2.43,3.38-4.24,4.65-1.62,1.16-4.06,2.29-7.33,3.38-.39.27-.59.64-.59,1.12.04.79.46,1.21,1.25,1.25.23,0,.56-.13,1-.41,1.66-.63,3.2-1.3,4.62-2.03,2.04-1.13,3.74-2.38,5.11-3.78,1.35-1.5,2.27-3.14,2.74-4.93.44,1.62,1.22,3.1,2.34,4.43,1.02,1.17,2.39,2.31,4.12,3.43,1.62,1.1,3.7,2.1,6.25,2.99.44.19.81.28,1.12.28.73-.04,1.11-.46,1.15-1.25,0-.5-.21-.87-.62-1.12Z"/>
        <path class="cls-10" d="M90.29,2.39l-23.25.02c-.75,0-1.12.37-1.12,1.13,0,.83.38,1.24,1.13,1.24h10.43s0,5.7,0,5.7c-.02.87-.63,1.56-1.47,1.7h-10.58c-.75,0-1.12.37-1.12,1.1,0,.83.38,1.25,1.13,1.25,0,0,10.24.01,10.33.01,2.21-.06,3.93-1.75,4.04-3.94,0,0,0,0,.01-.01v-5.8s10.48,0,10.48,0c.75,0,1.12-.42,1.12-1.25,0-.75-.38-1.12-1.13-1.12Z"/>
      </g>
      <g>
        <path class="cls-10" d="M181.04,14.3c0-.83-.38-1.25-1.12-1.25-.02,0-.14.04-.37.13-.89.64-1.69,1.19-2.37,1.62v-6.12s2.49,0,2.49,0c.75,0,1.12-.38,1.12-1.13,0-.75-.38-1.12-1.13-1.12h-2.5s0-4.83,0-4.83c0-.75-.43-1.13-1.28-1.13-.75,0-1.12.38-1.12,1.13v4.84s-2.96,0-2.96,0c-.77,0-1.15.38-1.15,1.12s.39,1.13,1.16,1.13h2.96s0,7.45,0,7.45c-.94.46-2.09.94-3.46,1.44-.58.19-.87.6-.87,1.25,0,.75.38,1.12,1.12,1.12.19,0,.39-.06.62-.19.83-.27,1.7-.61,2.59-1.03v7.55c0,.6-.23.91-.71.91-.33,0-1-.18-2-.53-.17-.06-.29-.09-.37-.09-.65.04-.99.45-1.03,1.22,0,.56.3.94.91,1.12,1.04.44,1.87.66,2.49.66,2.08,0,3.12-.92,3.12-2.75v-9.3c1.38-.79,2.48-1.54,3.3-2.25.37-.33.56-.66.56-.97Z"/>
        <path class="cls-10" d="M198.41,28.33c-2.12-.91-4.42-2.07-6.5-3.5,1.49-1.21,2.8-2.59,3.78-4.18,1.78-2.89.5-6.48-2.18-8.26-.68-.45-1.42-.73-2.17-.85v-4.3s6.49,0,6.49,0c.73,0,1.09-.39,1.09-1.16,0-.75-.36-1.12-1.09-1.12h-6.49s0-3.08,0-3.08c0-.77-.42-1.15-1.25-1.15-.75,0-1.12.39-1.12,1.15v3.09s-6.74,0-6.74,0c-.75,0-1.12.37-1.12,1.12s.38,1.16,1.12,1.16h6.74s0,4.38,0,4.38c-1.64.39-3.15,1.44-4.1,2.88-.8,1.21,1.15,2.34,1.94,1.13,1.53-2.33,4.92-2.58,6.66-.32,1.51,1.97.58,4.21-.95,5.84-.76.8-1.61,1.55-2.49,2.24-1.33-1.13-2.51-2.39-3.38-3.82-.75-1.23-2.69-.11-1.94,1.14.91,1.49,2.1,2.82,3.45,4.02-1.8,1.2-3.73,2.25-5.59,3.23-1.28.67-.15,2.61,1.13,1.94,2.05-1.07,4.27-2.26,6.31-3.67,2.29,1.66,4.85,3,7.25,4.03,1.31.57,2.46-1.37,1.13-1.94Z"/>
      </g>
      <g>
        <path class="cls-10" d="M106.73.88c.38,0,.81.28,1.31.84l4.19,4.4c.23.29.34.59.34.91-.04.7-.42,1.08-1.12,1.12-.17,0-.36-.09-.59-.28l-3.56-4.05c-.15-.21-.29-.31-.44-.31-.12,0-.25.11-.37.34-1.06,1.71-2.25,3.31-3.58,4.81.15-.09.33-.13.56-.13h6.62c.67,0,1,.33,1,.99,0,.65-.33.97-1,.97h-2.47s0,3.62,0,3.62h3.34c.69,0,1.03.34,1.03,1.03,0,.75-.34,1.12-1.03,1.12h-3.34s.01,9.49.01,9.49c1.02-.23,1.93-.49,2.74-.78.19-.08.35-.13.5-.13.54.04.83.34.88.91,0,.41-.22.75-.66,1-1.08.46-2.51.89-4.27,1.32-1.35.33-3.01.63-4.96.91-.62-.04-.96-.42-1-1.12,0-.62.29-.99.87-1.09,1.62-.19,2.91-.38,3.87-.56v-9.92s-3.63,0-3.63,0c-.64,0-.96-.37-.96-1.12,0-.69.32-1.03.96-1.03h3.62v-3.62h-2.12c-.64,0-.97-.32-.97-.97,0-.21.03-.38.09-.53-.13.13-.24.26-.34.41-.37.33-.71.5-1,.5-.73-.04-1.1-.43-1.13-1.15,0-.33.16-.67.47-1,2.12-2,3.72-3.89,4.8-5.68.44-.79.88-1.19,1.34-1.19ZM102.51,17.52c.46,0,.78.19.97.59.23.96.46,2.5.69,4.62.06.42.1.71.1.87,0,.6-.35.91-1.03.91-.6,0-.92-.3-.97-.91-.17-1.91-.37-3.54-.6-4.9l-.06-.47c0-.48.3-.72.9-.72ZM110.62,17.89c.29,0,.54.07.75.21.25.15.38.32.38.53,0,.17-.04.38-.13.62-.35,1.66-.73,3.11-1.12,4.34-.21.27-.43.4-.66.41-.75,0-1.12-.25-1.13-.75,0-.25.04-.42.13-.5.33-1.14.67-2.61,1-4.4.12-.31.38-.47.78-.47Z"/>
        <path class="cls-10" d="M128.1,20.75c-.62,0-.96.37-1,1.12,0,1.48-.06,2.91-.18,4.31-.04.71-.1,1.06-.18,1.06-.23,0-.53-.37-.91-1.12-.58-1.06-1.1-2.22-1.56-3.49.63-1.1,1.21-2.37,1.75-3.81.62-1.66,1.19-3.8,1.71-6.43.08-.27.13-.53.13-.78,0-.23-.13-.43-.37-.59-.21-.17-.46-.25-.75-.25-.44,0-.74.2-.91.6-.45,2.52-.98,4.58-1.58,6.18-.27.75-.56,1.45-.87,2.09-.36-1.46-.65-3.07-.88-4.84-.33-2.25-.56-4.88-.69-7.9h6.3c.75,0,1.13-.38,1.12-1.13,0-.75-.38-1.12-1.12-1.12h-.37c0-.21-.1-.47-.28-.78-.52-.81-1.1-1.55-1.72-2.22-.23-.27-.44-.41-.62-.41-.75,0-1.12.33-1.12,1,0,.12.09.34.25.65.44.54.85,1.13,1.25,1.75h-3.75c0-.93,0-1.89,0-2.87,0-.83-.39-1.25-1.16-1.25-.75,0-1.12.42-1.12,1.25,0,.95,0,1.92.03,2.87h-1.71c-2.28,0-4.12,1.85-4.12,4.13h0v15.35c.01.08.01.15.01.22-.18.06-.39.12-.62.16-.58.11-.87.48-.87,1.13.02.71.35,1.08,1,1.12,1.25-.33,2.31-.7,3.18-1.09,1.14-.48,2.07-.99,2.78-1.53.43-.25.66-.58.66-1-.02-.56-.31-.86-.88-.9-.14,0-.31.04-.5.13-.71.48-1.54.9-2.5,1.28v-14.84s-.01,0-.01,0c0-1.04.84-1.89,1.89-1.9h1.8c.11,2.16.26,4.19.47,6.09.44,3.64,1.06,6.73,1.88,9.27-.56.83-1.21,1.63-1.93,2.4-.94,1-2.14,1.95-3.62,2.84-.41.15-.63.48-.62,1,0,.25.11.48.31.68.23.21.49.31.78.31.17,0,.43-.1.78-.28,1.58-.92,2.87-1.91,3.87-2.97.46-.48.89-.98,1.31-1.5.54,1.35,1.11,2.5,1.72,3.46.85,1.18,1.67,1.78,2.47,1.78.71,0,1.24-.68,1.59-2.03.43-1.92.65-3.86.65-5.84,0-.77-.37-1.23-1.12-1.37Z"/>
      </g>
      <g>
        <path class="cls-10" d="M145.63.85c.75,0,1.13.41,1.13,1.25,0,.62-.46,1.01-1.37,1.16-.62.23-1.37.44-2.24.62v4.84s4,0,4,0c.75,0,1.12.38,1.12,1.15s-.37,1.13-1.12,1.13h-3.99v.72l4.72,5.65c.27.33.4.61.4.84,0,.77-.37,1.16-1.12,1.16-.5,0-.87-.2-1.09-.59l-2.91-4.02v14.11c.01.75-.4,1.12-1.23,1.13-.77,0-1.15-.38-1.16-1.13v-13.23s-.01.04-.01.06c-.69,1.71-1.3,3.04-1.84,4-.67,1.38-1.26,2.35-1.78,2.94-.25.5-.57.75-.97.75-.75,0-1.12-.38-1.13-1.15,0-.27.08-.55.25-.84,1.75-2.56,2.98-4.68,3.71-6.37.52-1.14,1.01-2.48,1.46-3.99h-4.18c-.75,0-1.12-.37-1.12-1.12,0-.77.37-1.16,1.12-1.16h4.46s0-4.34,0-4.34c-1.83.31-3.12.47-3.87.47-.91,0-1.37-.41-1.37-1.25,0-.64.38-.97,1.15-.97,1.56-.06,3.01-.21,4.34-.44,1.67-.27,3.21-.72,4.65-1.34Z"/>
        <path class="cls-10" d="M150.23,9.61c.21,0,.47.08.78.25.79.75,1.5,1.47,2.12,2.15.96.98,1.87,2.12,2.72,3.43.27.31.41.53.41.66,0,.73-.33,1.09-1,1.09-.46,0-.83-.13-1.12-.38-1.04-1.35-1.92-2.41-2.62-3.18-.6-.67-1.27-1.35-2-2.06-.27-.27-.41-.55-.41-.84,0-.75.37-1.12,1.12-1.13Z"/>
        <path class="cls-10" d="M151.5,2.22c.19,0,.44.08.75.25.86.77,1.61,1.53,2.28,2.27,1.06,1.02,2.05,2.23,2.97,3.62.25.27.37.47.37.59,0,.75-.33,1.12-1,1.12-.44,0-.82-.11-1.16-.34-1.1-1.44-2.04-2.57-2.81-3.4-.65-.66-1.37-1.36-2.15-2.09-.27-.31-.41-.61-.41-.9,0-.75.39-1.13,1.16-1.13Z"/>
        <path class="cls-10" d="M164.26,18.84c-2.42.07-4.3,1.92-4.39,4.3h0v5.57c0,.75.38,1.12,1.13,1.12.83,0,1.24-.37,1.24-1.12v-5.3c0-.07.02-.14.02-.21.03-1.1.88-1.95,1.99-1.98,1.54-.04,1.55-2.42,0-2.37Z"/>
        <path class="cls-10" d="M161.75,16.02V1.96c-.01-.75-.43-1.12-1.26-1.12-.75,0-1.12.38-1.12,1.13v14.25c-.12,2.21-1.88,3.6-4.1,3.98-.06,0-.11.03-.17.05l-7.83,1.24c-.77,0-1.15.37-1.15,1.12,0,.81.39,1.22,1.16,1.22l7.99-1.26c3.65-.4,6.39-2.89,6.48-6.49,0-.02,0-.03,0-.05Z"/>
      </g>
    </g>
  </g>
  <g>
    <g>
      <path class="cls-9" d="M34.91,20.92c-.92-5.62-6.12-9.49-11.63-9.62-5.9.14-10.76,4.3-11.71,10.14-.5,3.09.41,6.23,2.2,8.75.79,1.11,1.81,2,2.91,2.78.98.69,1.49.63,2.65.63.4,0,.53-.53.2-.73-7.54-4.65-5.07-17.19,4.16-17.47,3.88-.11,7.24,2.75,8.56,6.23,1.59,4.18-.38,8.95-4.07,11.23-.33.2-.2.73.2.73,2,0,4.06-2.82,5.03-4.32,1.58-2.47,1.97-5.51,1.5-8.35Z"/>
      <path class="cls-2" d="M44.24,26.81c-.79-1.11-1.81-2-2.91-2.78-.98-.69-1.49-.63-2.65-.63-.4,0-.53.53-.2.73,7.54,4.65,5.07,17.19-4.16,17.47-3.88.11-7.24-2.75-8.56-6.23-1.58-4.18.38-8.95,4.07-11.23.33-.2.2-.73-.2-.73-2,0-4.06,2.82-5.03,4.32-1.58,2.47-1.96,5.51-1.5,8.35.92,5.62,6.12,9.49,11.63,9.62,5.9-.14,10.76-4.3,11.71-10.14.5-3.09-.41-6.23-2.2-8.75Z"/>
      <path class="cls-4" d="M20.07,30.73c-1.35-1.06-3.29-.68-4.32.63-1.06,1.35-.67,3.29.63,4.32,1.35,1.06,3.3.67,4.32-.63,0-.01.01-.02.02-.03.01-.02.03-.02.04-.05.91-1.41.64-3.2-.69-4.23Z"/>
      <path class="cls-6" d="M41.63,21.32c-1.35-1.06-3.3-.67-4.32.63,0,.01,0,.02-.02.03-.01.02-.03.03-.04.05-.91,1.41-.64,3.2.69,4.24,1.35,1.06,3.29.68,4.32-.62,1.06-1.35.67-3.3-.63-4.32Z"/>
    </g>
    <g>
      <path class="cls-5" d="M11.24,7.03c.93.93,1.86,1.86,2.79,2.79.12.12.33.16.48.06,10.2-6.79,23.71-5.53,32.47,3.04,8.57,8.76,9.83,22.28,3.04,32.47-.1.15-.06.36.06.48.13.13.27.26.4.4.2.2.47.12.62-.08,8.71-11.29,7.69-27.33-2.27-37.5C38.88-1.47,22.44-2.16,11.32,6.41c-.2.15-.28.42-.08.62Z"/>
      <path class="cls-7" d="M46.77,49.97c-.93-.93-1.86-1.86-2.79-2.79-.12-.12-.33-.16-.48-.06-10.2,6.79-23.71,5.53-32.47-3.04C2.47,35.32,1.2,21.81,8,11.61c.1-.15.06-.36-.06-.48-.13-.13-.27-.27-.4-.4-.2-.2-.47-.12-.62.08C-1.79,22.11-.77,38.15,9.19,48.32c9.95,10.15,26.38,10.85,37.5,2.27.2-.15.28-.42.08-.62Z"/>
      <path class="cls-3" d="M16.46,7.52s0-.03,0-.04c-.32-2.07-2.02-3.44-4.11-3.34-2.13.1-3.54,2.12-3.45,4.12.1,2.13,2.12,3.54,4.12,3.45,2.14-.1,3.54-2.12,3.45-4.12,0-.02-.01-.04-.02-.06Z"/>
      <path class="cls-8" d="M44.71,45.02c-2.14.1-3.54,2.12-3.45,4.12,0,.02.01.04.02.06,0,.01,0,.03,0,.04.32,2.07,2.02,3.44,4.11,3.34,2.14-.1,3.54-2.13,3.45-4.12-.1-2.13-2.12-3.54-4.12-3.45Z"/>
    </g>
  </g>
</svg>